<svg width="738" height="744" viewBox="0 0 738 744" fill="none" xmlns="http://www.w3.org/2000/svg">
<path fill-rule="evenodd" clip-rule="evenodd" d="M533 406C644.009 406 734 316.009 734 205C734 93.9908 644.009 4 533 4C421.991 4 332 93.9908 332 205C332 316.009 421.991 406 533 406ZM533 410C646.218 410 738 318.218 738 205C738 91.7816 646.218 0 533 0C419.782 0 328 91.7816 328 205C328 318.218 419.782 410 533 410Z" fill="#EDEDED"/>
<path fill-rule="evenodd" clip-rule="evenodd" d="M533 377C627.993 377 705 299.993 705 205C705 110.007 627.993 33 533 33C438.007 33 361 110.007 361 205C361 299.993 438.007 377 533 377ZM533 381C630.202 381 709 302.202 709 205C709 107.798 630.202 29 533 29C435.798 29 357 107.798 357 205C357 302.202 435.798 381 533 381Z" fill="#EDEDED"/>
<path fill-rule="evenodd" clip-rule="evenodd" d="M533 341C608.111 341 669 280.111 669 205C669 129.889 608.111 69 533 69C457.889 69 397 129.889 397 205C397 280.111 457.889 341 533 341ZM533 345C610.32 345 673 282.32 673 205C673 127.68 610.32 65 533 65C455.68 65 393 127.68 393 205C393 282.32 455.68 345 533 345Z" fill="#EDEDED"/>
<path fill-rule="evenodd" clip-rule="evenodd" d="M292 740C451.058 740 580 611.058 580 452C580 292.942 451.058 164 292 164C132.942 164 4 292.942 4 452C4 611.058 132.942 740 292 740ZM292 744C453.267 744 584 613.267 584 452C584 290.733 453.267 160 292 160C130.733 160 0 290.733 0 452C0 613.267 130.733 744 292 744Z" fill="#EDEDED"/>
<path fill-rule="evenodd" clip-rule="evenodd" d="M292 704C431.176 704 544 591.176 544 452C544 312.824 431.176 200 292 200C152.824 200 40 312.824 40 452C40 591.176 152.824 704 292 704ZM292 708C433.385 708 548 593.385 548 452C548 310.615 433.385 196 292 196C150.615 196 36 310.615 36 452C36 593.385 150.615 708 292 708Z" fill="#EDEDED"/>
<path fill-rule="evenodd" clip-rule="evenodd" d="M292 656C404.666 656 496 564.666 496 452C496 339.334 404.666 248 292 248C179.334 248 88 339.334 88 452C88 564.666 179.334 656 292 656ZM292 660C406.875 660 500 566.875 500 452C500 337.125 406.875 244 292 244C177.125 244 84 337.125 84 452C84 566.875 177.125 660 292 660Z" fill="#EDEDED"/>
</svg>
